**ABCDEFGHIJKLMNOPQRSTUVWXYZabcdefghijklmnopqrstuvwxyz**************************
**PARASOLID !"#$%&'()*+,-./:;<=>?@[\]^_`{|}~0123456789**************************
**PART1;
MC=AMD64;
MC_MODEL=Intel64 Family 6 Model 60 Stepping 3, GenuineIntel;
MC_ID=unknown;
OS=Windows_NT;
OS_RELEASE=unknown;
FRU=Parasolid Version 28.0, build 204, 11- 9-2015;
APPL=SOLIDWORKS 2016-2016040;
SITE=;
USER=unknown;
FORMAT=text;
GUISE=transmit;
KEY=fluid domain;
FILE=fluid domain.x_t;
DATE=Sat Dec 03 14:20:29 2016;
**PART2;
SCH=SCH_2800204_28002;
USFLD_SIZE=0;
**PART3;
**END_OF_HEADER*****************************************************************
T51 : TRANSMIT FILE created by modeller version 280020423 SCH_2800204_28002_1300
6200 0 12 30 CCCCCCCCCCCCCDI5 owner1040 0 CCCCCCCCCA13 boundary_mesh1006 0 A16 i
ndex_map_offset0 0 1 dA9 index_map82 0 A17 node_id_index_map82 0 A20 schema_embe
dding_map82 0 A5 child12 0 A14 lowest_node_id0 0 1 dZ1 462 2 3 0 0 0 0 1e3 1e-8
 0 4 0 1 0 1 1 5 6 7 8 9 10 11 0 0 0 0 0 0 0 81 255 2 2 132 12 1 0 0 0 0 13 0 70
 11 CI9 list_type0 0 1 uI10 notransmit0 0 1 lCCCDCCDI12 finger_index0 0 1 dI12 f
inger_block1012 0 CZ3 0 4 T1 0 0 3 20 1 14 14 13 255 5 94 0 1 0 15 0 0 16 0 50 2
55 6 89 0 17 18 0 0 +0 0 .5 1 0 0 0 0 -1 30 255 7 172 0 1 19 0 20 +.012547419621
55642 .02173276828842235 0 -.866025403784438 .5 0 29 255 8 146 0 11 21 0 .486602
540378444 -.25 0 19 8 CCCCCCCA5 owner12 0 Z9 28 0 1 16 0 22 V0 16 255 10 169 0 ?
23 0 24 19 0 0 1 18 255 11 144 0 25 0 26 8 952538002659396e-21 1 17 255 25 0 27
 28 29 11 30 31 32 33 -18 26 25 0 34 11 35 36 ?1 17 34 0 37 38 39 26 40 41 0 42
 +18 35 22 0 39 26 43 44 ?1 29 36 27 0 26 44 45 0 0 .5 29 44 24 0 35 46 36 1.9 2
32682891837997e-30 .5 29 45 73 0 47 36 48 0 -.7 0 18 47 64 0 49 50 51 45 ?1 29 4
8 72 0 50 45 52 1.9 -.7 0 18 50 63 0 53 54 47 48 ?1 29 52 71 0 54 48 21 1.9 2326
82891837997e-30 0 18 54 62 0 55 56 50 52 ?1 29 21 70 0 56 52 8 0 0 0 18 56 61 0
 57 58 54 21 ?1 17 57 0 59 42 60 56 61 62 0 63 +18 58 16 0 64 43 56 65 ?1 17 64
 0 66 67 68 58 69 70 0 38 -18 43 19 0 69 35 58 46 ?1 29 65 18 0 58 71 46 0 -.7 .
5 29 71 357 0 72 73 65 .4787923263406 -.243527687531534 .0363404283614264 29 46
 21 0 43 65 44 1.9 -.7 .5 18 72 244 0 74 75 76 71 2061552817673385e-23 1 29 73 3
58 0 75 77 71 .4138404210567665 -.206027687531534 -289120579329468e-31 18 75 243
 0 78 51 72 73 206155281877107e-22 1 29 77 359 0 51 79 73 .484977925610099 -.249
062028226167 .0454603774425081 18 51 247 0 80 47 75 77 952538002757258e-21 1 29
 79 360 0 76 81 77 .4770922463406 -.246472312468466 .0363404283614264 18 76 249
 0 82 72 83 79 2061552817673385e-23 1 29 81 362 0 83 84 79 .4787923263406 -.2435
27687531534 0 18 83 246 0 85 76 86 81 206155281306127e-22 1 29 84 366 0 87 88 81
 .4121403410567665 -.208972312468466 289120579329468e-31 18 87 248 0 23 86 89 84
 206155281877107e-22 1 29 88 367 0 89 90 84 .4770922463406 -.246472312468466 0 1
8 89 245 0 28 87 0 88 206155281306127e-22 1 29 90 368 0 86 0 88 .4 -.2 0 18 86 2
51 0 91 83 87 90 375532954612508e-21 1 17 91 0 92 80 93 86 94 95 0 96 +15 255 92
 279 0 91 97 0 17 80 0 92 82 91 51 96 98 99 100 -17 93 0 92 91 82 87 101 102 0 9
4 +17 94 0 103 104 105 87 91 95 0 0 -16 95 228 0 ?91 106 107 108 0 0 1 17 96 0 1
09 78 100 86 80 98 110 105 +15 109 269 0 78 111 0 17 78 0 109 74 96 75 105 112 0
 113 -17 100 0 109 96 74 51 114 115 0 30 +16 98 209 0 375e-9 96 31 116 0 0 0 1 1
33 255 110 314 0 96 117 118 0 +118 .484977925610102 -.249062028226168 .045460377
4425067 .4 -.2 0 1 0 17 105 0 103 94 119 86 78 112 0 0 +15 103 170 0 104 15 0 17
 119 0 103 105 120 75 85 24 0 0 -16 112 190 0 ?105 102 106 121 0 0 1 16 102 180
 0 ?93 122 112 123 0 0 1 16 106 199 0 ?120 112 95 124 0 0 1 133 121 340 0 112 12
5 126 0 +126 .4138404210567665 -.206027687531534 0 .4 -.2 0 0 1 134 255 125 341
 0 1 124 121 127 +128 129 134 126 339 0 1 121 32 130 +131 132 133 32 328 0 25 12
6 133 0 +133 .484977925610102 -.249062028226168 .0454603774425067 .4866025403784
44 -.25 0 0 1 141 255 130 121 130 130 126 136 255 131 3 5 3 3 6 FFF1 134 135 136
 135 255 132 2 0 45 255 15 134 .4138404210567665 -.206027687531534 0 .4136225285
603345 -.2059018872400645 0 .4092646786316965 -.2033858814106775 0 .400724202629
1125 -.198745644251402 0 .4 -.2 0 127 255 3 135 4 1 4 128 255 3 136 0 .05 1 137
 255 133 327 0 1 32 137 138 +139 140 0 ?133 137 326 0 116 133 141 0 +141 .477092
2463406 -.246472312468466 .0363404283614264 .484977925610102 -.249062028226168 .
0454603774425067 0 1 141 138 32 138 138 133 124 255 139 302 0 142 0 143 144 -145
 146 134 140 0 0 0 0 0 0 +147 148 136 147 1 2 2 2 5 FFF1 149 150 151 135 148 2 0
 45 4 149 1 0 1 1 127 2 150 2 2 128 2 151 0 1 14 255 142 280 152 ?0 97 27 5 139
 -0 0 0 97 22 124 143 301 0 97 139 153 154 -155 156 141 144 133 144 144 139 126
 255 145 FF3 3 5 6 6 6 3 3 FFF2 3 157 158 159 160 161 125 255 146 0 1 0 1 0 1 0
 1 2 BBBBBBBB????0 0 0 0 45 90 157 .4770922463406 -.246472312468466 .03634042836
14264 .4770922463406 -.246472312468466 .0352571295139702 .4770922463406 -.246472
312468466 .034173830666514 .4770922463406 -.246472312468466 .0220603545460385 .4
770922463406 -.246472312468466 .01103017727301926 .4770922463406 -.2464723124684
66 0 .477243934436767 -.246559889631621 .0365370540922609 .477245084304808 -.246
560553508244 .03544649828120295 .47724613237361 -.246561158611049 .0343559471724
9115 .477250306840715 -.2465635687407555 .0221641901856475 .477244259100746 -.24
6560077076457 .01107445991961706 .477238654924141 -.2465568415035855 0 .48027769
6360118 -.248311432894725 .0404695687089512 .480346662237216 -.2483512503624325
 .03926834752509755 .480395215439939 -.248379282567095 .03803875860659955 .48044
3933727029 -.24840741008326 .0242944883783189 .480301166309052 -.24832498327606
 .01200217589823236 .480166826594973 -.248247422205974 0 .484135655837685 -.2505
208822656725 .0454603774425067 .485140422812718 -.2510832607831405 .044738869197
0256 .485775620010874 -.2514322680904445 .0434482193671042 .485861438734631 -.25
12836257006565 .0280472836945249 .485939582755965 -.2511482762853995 .0140236418
472625 .486017726777298 -.251012926870142 0 .484977925610102 -.249062028226168 .
0454603774425067 .485975017882711 -.249637699718166 .0447388691970256 .486602540
378444 -.25 .0434482193671042 .486602540378444 -.25 .0280472836945249 .486602540
378444 -.25 .0140236418472625 .486602540378444 -.25 0 127 3 158 4 1 4 127 3 159
 4 2 4 128 3 160 0 .05 1 128 3 161 0 .0894292304440262 1 14 97 277 162 ?142 163
 92 5 143 -0 0 142 111 22 50 153 300 0 164 143 165 0 +.39914996 -.20147231246846
6 0 .5 .866025403784438 0 .866025403784438 -.5 0 141 154 166 154 154 143 126 155
 FF3 3 5 6 6 6 3 3 FFF2 3 167 168 169 170 171 125 156 0 1 0 1 0 1 0 1 2 BBBBBBBB
????0 0 0 0 45 90 167 .4121403410567665 -.208972312468466 0 .432969277866167 -.2
20997904742307 .0116537379874999 .453798214675568 -.233023497016148 .02330747597
499965 .475448849770179 -.245523497016148 .0354209520954753 .476270548055389 -.2
45997904742307 .03588069022845085 .4770922463406 -.246472312468466 .036340428361
4264 .4119224485603345 -.2088465121769965 0 .4328692096793955 -.220940130347737
 .01172754564420216 .453815970798457 -.233033748518478 .0234550912884042 .475589
078353235 -.245604458026324 .03564528676604485 .476418859845301 -.24608353259413
7 .03609643883375025 .477243934436767 -.246559889631621 .0365370540922609 .40756
45986316965 -.206330506347609 0 .430867845943964 -.2197846424563395 .01320369877
824736 .454171093256232 -.23323877856507 .02640739755649485 .478393650014371 -.2
47223678229842 .04013198017743655 .479385095643544 -.247796089630732 .0404114109
397385 .480277696360118 -.248311432894725 .0404695687089512 .3992757973708875 -.
2012543557485975 0 .4264604237219385 -.217036845777028 .01501922827376525 .45364
505007299 -.2328193358054585 .0300384565475308 .481902105663283 -.24922444258631
25 .0456501910173953 .483115372212785 -.249928371797726 .0457712888184428 .48413
5655837685 -.2505208822656725 .0454603774425067 .4 -.2 0 .42720930803371 -.21570
9301317726 .01522353971053015 .454418616067421 -.231418602635452 .03044707942106
085 .482701327028877 -.2477476334224615 .0462711853817761 .48398083333749 -.2484
86356734169 .0461818856879831 .484977925610102 -.249062028226168 .04546037744250
67 127 3 168 4 1 4 127 3 169 4 2 4 128 3 170 0 .05 1 128 3 171 0 .96204738190728
9 1 137 166 323 0 1 99 123 172 +143 173 0 ?133 99 324 0 80 141 166 0 +166 .4 -.2
 0 .484977925610102 -.249062028226168 .0454603774425067 0 1 133 123 322 0 102 16
6 174 0 +174 .4770922463406 -.246472312468466 .03634042836142635 .41214034105676
65 -.208972312468466 -867361737988404e-31 -.04167021338285885 .04167021338285895
 141 172 99 172 172 166 134 173 0 0 0 0 0 0 +175 176 136 175 1 2 2 2 5 FFF1 177
 178 179 135 176 2 0 45 4 177 1 0 1 1 127 2 178 2 2 128 2 179 0 1 30 174 321 0 1
 123 180 181 +.444616293698683 -.227722312468466 .01817021418071315 -.7793565236
52348 .449961698725375 -.436048023411072 133 180 320 0 122 174 182 0 +182 .47709
22463406 -.246472312468466 0 .477092246340599 -.246472312468466 .036340428361426
4 -.0181702141807132 .0181702141807132 141 181 123 181 181 174 16 122 177 0 ?183
 116 102 180 0 0 1 30 182 319 0 1 180 184 185 +.4770922463406 -.246472312468466
 .0181702141807132 -100083386503311e-30 -1733495104172875e-31 1 133 184 318 0 30
 182 186 0 +186 .486602540378444 -.25 0 .484977925610102 -.249062028226168 .0454
603774425067 1 0 141 185 180 185 185 182 17 30 0 187 114 33 51 25 31 184 29 +137
 186 317 0 1 184 188 189 -165 190 0 ?133 188 316 0 115 186 117 0 +117 .478792326
3406 -.243527687531534 .0363404283614264 .484977925610102 -.249062028226168 .045
4603774425067 0 1 141 189 184 189 189 186 124 165 299 0 163 153 191 192 +193 194
 134 190 0 0 0 0 0 0 +195 196 136 195 1 2 2 2 5 FFF1 197 198 199 135 196 2 0 45
 4 197 1 0 1 1 127 2 198 2 2 128 2 199 0 1 14 163 270 200 ?97 111 187 5 165 -0 0
 111 164 22 124 191 298 0 111 165 201 202 +203 204 141 192 186 192 192 165 126 1
93 FF3 3 5 6 6 6 3 3 FFF2 3 205 206 207 208 209 125 194 0 1 0 1 0 1 0 1 2 BBBBBB
BB????0 0 0 0 45 90 205 .4787923263406 -.243527687531534 .0363404283614264 .4787
923263406 -.243527687531534 .0352571295139702 .4787923263406 -.243527687531534 .
034173830666514 .4787923263406 -.243527687531534 .0220603545460385 .478792326340
6 -.243527687531534 .01103017727301926 .4787923263406 -.243527687531534 0 .47894
4014436767 -.2436152646946895 .0365370540922609 .478945164304808 -.2436159285713
125 .03544649828120295 .47894621237361 -.2436165336741175 .03435594717249115 .47
8950386840714 -.243618943803824 .0221641901856475 .478944339100746 -.24361545213
9525 .01107445991961706 .478938734924141 -.2436122165666535 0 .481977776360118 -
.245366807957793 .0404695687089512 .482046742237216 -.245406625425501 .039268347
52509755 .482095295439939 -.245434657630163 .03803875860659955 .482144013727029
 -.2454627851463285 .0242944883783189 .482001246309052 -.245380358339128 .012002
17589823236 .481866906594973 -.245302797269042 0 .485820195382518 -.247603174186
6635 .0454603774425067 .486809612952704 -.2481921386531915 .0447388691970256 .48
7429460746014 -.2485677319095555 .0434482193671042 .487343642022257 -.2487163742
99343 .0280472836945249 .487265498000923 -.248851723714601 .0140236418472625 .48
718735397959 -.2489870731298585 0 .484977925610102 -.249062028226168 .0454603774
425067 .485975017882711 -.249637699718166 .0447388691970256 .486602540378444 -.2
5 .0434482193671042 .486602540378444 -.25 .0280472836945249 .486602540378444 -.2
5 .0140236418472625 .486602540378444 -.25 0 127 3 206 4 1 4 127 3 207 4 2 4 128
 3 208 0 .05 1 128 3 209 0 .0894292304440262 1 14 111 267 210 ?163 164 109 5 191
 -0 0 97 163 22 50 201 297 0 211 191 212 0 +.40085004 -.198527687531534 0 -.5 -.
866025403784438 0 .866025403784438 -.5 0 141 202 118 202 202 191 126 203 FF3 3 5
 6 6 6 3 3 FFF2 3 213 214 215 216 217 125 204 0 1 0 1 0 1 0 1 2 BBBBBBBB????0 0
 0 0 45 90 213 .4138404210567665 -.206027687531534 0 .434669357866167 -.21805327
9805375 .0116537379874999 .455498294675568 -.2300788720792165 .02330747597499965
 .477148929770179 -.2425788720792165 .0354209520954753 .477970628055389 -.243053
2798053755 .03588069022845085 .4787923263406 -.243527687531534 .0363404283614264
 .4136225285603345 -.2059018872400645 0 .4345692896793955 -.2179955054108055 .01
172754564420216 .455516050798457 -.230089123581546 .0234550912884042 .4772891583
53235 -.2426598330893925 .03564528676604485 .478118939845301 -.243138907657205 .
03609643883375025 .478944014436767 -.2436152646946895 .0365370540922609 .4092646
786316965 -.2033858814106775 0 .432567925943964 -.2168400175194075 .013203698778
24736 .455871173256232 -.230294153628138 .02640739755649485 .48009373001437 -.24
427905329291 .04013198017743655 .481085175643544 -.2448514646938005 .04041141093
97385 .481977776360118 -.245366807957793 .0404695687089512 .4007242026291125 -.1
98745644251402 0 .427984553104233 -.214396976249585 .01501922827376525 .45524490
3579354 -.230048308247768 .0300384565475308 .483580670598517 -.246317082834684 .
0456501910173953 .484796924452818 -.2470158378824075 .0457712888184428 .48582019
5382518 -.2476031741866635 .0454603774425067 .4 -.2 0 .42720930803371 -.21570930
1317726 .01522353971053015 .454418616067421 -.231418602635452 .03044707942106085
 .482701327028877 -.2477476334224615 .0462711853817761 .48398083333749 -.2484863
56734169 .0461818856879831 .484977925610102 -.249062028226168 .0454603774425067
 127 3 214 4 1 4 127 3 215 4 2 4 128 3 216 0 .05 1 128 3 217 0 .962047381907289
 1 137 118 313 0 1 110 218 219 -191 220 0 ?133 218 312 0 221 118 222 0 +222 .478
7923263406 -.243527687531534 .03634042836142635 .4138404210567665 -.206027687531
534 -867361737988404e-31 -.04167021338285885 .04167021338285895 141 219 110 219
 219 118 134 220 0 0 0 0 0 0 +223 224 136 223 1 2 2 2 5 FFF1 225 226 227 135 224
 2 0 45 4 225 1 0 1 1 127 2 226 2 2 128 2 227 0 1 16 221 193 0 ?113 228 31 218 0
 0 1 30 222 311 0 1 218 229 230 +.446316373698683 -.224777687531534 .01817021418
071315 -.779356523652348 .449961698725375 -.436048023411072 133 229 310 0 228 22
2 231 0 +231 .4787923263406 -.243527687531534 0 .4787923263406 -.243527687531534
 .0363404283614264 -.0181702141807132 .0181702141807132 141 230 218 230 230 222
 16 228 202 0 ?232 115 221 229 0 0 1 30 231 309 0 1 229 233 234 +.4787923263406
 -.243527687531534 .0181702141807132 100083386503311e-30 1733495104172875e-31 1
 30 233 5 0 235 231 236 0 +0 0 .5 0 -1 0 141 234 229 234 234 231 16 235 4 0 ?38
 70 62 233 0 0 1 30 236 8 0 70 233 237 0 +0 -.7 .5 1 1168655815394902e-31 0 16 7
0 7 0 ?69 238 235 236 0 0 1 30 237 11 0 238 236 239 0 +1.9 232682891837997e-30 .
5 0 1 0 16 238 10 0 ?39 41 70 237 0 0 1 30 239 14 0 41 237 240 0 +0 0 .5 -1 -122
4646799147352e-31 0 16 41 13 0 ?34 241 238 239 0 0 1 30 240 69 0 242 239 243 0 +
0 0 0 0 -1 0 16 242 57 0 ?244 245 115 240 0 0 1 30 243 68 0 245 240 246 0 +0 -.7
 0 1 1168655815394902e-31 0 16 245 53 0 ?53 247 242 243 0 0 1 30 246 67 0 247 24
3 248 0 +1.9 232682891837997e-30 0 0 1 0 16 247 49 0 ?55 62 245 246 0 0 1 30 248
 66 0 62 246 249 0 +0 0 0 -1 -1224646799147352e-31 0 16 62 45 0 ?57 235 247 248
 0 0 1 30 249 90 0 241 248 250 0 +0 0 .5 0 0 -1 16 241 74 0 ?63 251 41 249 0 0 1
 30 250 91 0 251 249 252 0 +1.9 232682891837997e-30 .5 0 0 -1 16 251 75 0 ?60 25
3 241 250 0 0 1 30 252 92 0 253 250 254 0 +1.9 -.7 .5 0 0 -1 16 253 76 0 ?255 25
6 251 252 0 0 1 30 254 93 0 256 252 257 0 +0 -.7 .5 0 0 -1 16 256 77 0 ?67 24 25
3 254 0 0 1 133 257 157 0 24 254 258 0 +258 .413840421056767 -.2060276875315345
 555111512312578e-31 .4787923263406 -.243527687531534 -1734723475976805e-33 .461
410161513776 .536410161513776 16 24 155 0 ?85 10 256 257 0 0 1 30 258 158 0 1 25
7 19 259 +.01424749962155642 .024677393225354 0 .866025403784438 -.5 0 133 19 17
1 0 10 258 7 0 +7 .4770922463406 -.246472312468466 1734723475976805e-33 .4121403
41056767 -.208972312468466 -555111512312578e-31 -.536410161513776 -.461410161513
776 141 259 257 259 259 258 17 85 0 260 232 113 83 119 24 0 261 +15 260 258 0 85
 211 0 17 232 0 260 113 85 72 261 228 0 0 +17 113 0 260 85 232 75 74 221 0 119 +
17 261 0 187 33 114 83 232 228 0 120 -15 187 272 0 114 163 0 17 33 0 187 30 261
 11 120 106 0 262 -17 114 0 187 261 30 72 100 115 0 232 -17 120 0 103 119 262 83
 33 106 0 0 +17 262 0 103 120 104 11 28 107 0 0 -17 104 0 103 262 94 89 23 10 0
 0 -17 28 0 27 183 25 89 262 107 0 263 +16 107 237 0 ?28 95 0 264 0 0 1 133 264
 356 0 107 0 265 0 +265 .486602540378444 -.25 0 .4770922463406 -.246472312468466
 0 0 1 134 265 355 0 1 264 108 266 +267 268 133 108 354 0 95 265 269 0 +269 .412
1403410567665 -.208972312468466 0 .4 -.2 0 0 1 141 266 264 266 266 265 136 267 3
 5 3 3 6 FFF1 270 271 272 135 268 2 0 45 15 270 .486602540378444 -.25 0 .4860177
26777298 -.251012926870142 0 .480166826594973 -.248247422205974 0 .4772386549241
41 -.2465568415035855 0 .4770922463406 -.246472312468466 0 127 3 271 4 1 4 128 3
 272 0 .95 1 134 269 353 0 1 108 124 273 +274 275 133 124 342 0 106 269 125 0 +1
25 .486602540378444 -.25 0 .4787923263406 -.243527687531534 0 0 1 141 273 108 27
3 273 269 136 274 3 5 3 3 6 FFF1 276 277 278 135 275 2 0 45 15 276 .412140341056
7665 -.208972312468466 0 .4119224485603345 -.2088465121769965 0 .407564598631696
5 -.206330506347609 0 .3992757973708875 -.2012543557485975 0 .4 -.2 0 127 3 277
 4 1 4 128 3 278 0 .05 1 15 27 282 0 29 142 0 17 183 0 27 29 28 76 263 122 0 0 +
17 263 0 279 23 101 89 183 122 0 104 -15 279 262 0 23 164 0 17 23 0 279 101 263
 87 104 10 0 93 +17 101 0 279 263 23 76 93 102 0 183 -14 164 259 280 ?111 211 27
9 5 153 +0 0 163 211 22 81 1 280 455 281 164 282 0 210 283 284 14 211 255 283 ?1
64 285 260 5 201 +0 0 164 285 22 13 22 29 0 0 0 0 0 0 9 15 14 15 173 286 ?17 0 2
87 5 288 -0 0 17 0 22 81 1 286 457 281 15 289 0 283 290 291 14 17 85 290 ?292 15
 293 5 6 -0 0 292 15 22 15 287 44 0 294 15 103 50 288 65 0 15 212 295 0 +0 0 0 0
 0 1 1 0 0 50 212 2 0 285 201 288 0 +0 0 .5 0 0 1 1 0 0 50 295 86 0 296 288 297
 0 +0 0 .5 1224646799147352e-31 -1 0 1 1224646799147352e-31 0 14 296 79 298 ?285
 299 59 5 295 -0 0 285 299 22 50 297 87 0 299 295 18 0 +1.9 232682891837997e-30
 .5 -1 0 0 0 0 1 14 299 81 300 ?296 292 301 5 297 -0 0 296 292 22 50 18 88 0 292
 297 6 0 +0 -.7 .5 -1168655815394902e-31 1 0 -1 -1168655815394902e-31 0 14 292 8
3 302 ?299 17 66 5 18 -0 0 299 17 22 81 1 302 461 281 292 303 0 300 304 305 15 6
6 82 0 53 292 0 17 53 0 66 68 67 50 49 245 0 255 +17 68 0 66 64 53 43 255 253 0
 306 -17 67 0 66 53 64 47 307 256 0 244 +17 49 0 287 294 308 47 53 245 0 67 -17
 255 0 301 55 306 50 68 253 0 308 +15 301 80 0 55 299 0 17 55 0 301 309 255 54 3
08 247 0 60 +17 306 0 301 255 309 43 39 238 0 0 -17 308 0 287 49 61 50 55 247 0
 0 -17 61 0 287 308 294 54 57 62 0 0 -17 294 0 287 61 49 56 244 242 0 0 -17 244
 0 293 307 63 47 294 242 0 0 +15 293 84 0 244 17 0 17 307 0 293 310 244 58 67 25
6 0 0 -17 63 0 293 244 310 56 42 241 0 294 +17 310 0 293 63 307 26 38 235 0 0 -1
7 42 0 59 40 57 26 63 241 0 310 -15 59 78 0 57 296 0 17 40 0 59 60 42 35 34 41 0
 0 -17 60 0 59 57 40 54 309 251 0 61 +17 309 0 301 306 55 35 60 251 0 40 -17 38
 0 37 69 34 58 310 235 0 307 +15 37 3 0 38 285 0 17 69 0 37 39 38 43 64 70 0 68
 +17 39 0 37 34 69 35 306 238 0 309 +14 285 1 304 ?211 296 37 5 212 +0 0 211 296
 22 81 1 304 462 281 285 311 0 302 0 312 80 255 1 281 313 314 9000 1 1 1 1 1 1 1
 1 0 FFFFTFTFFFFFFF1 81 1 311 137 315 285 0 304 316 289 317 82 255 1 312 1868432
39 80 1 315 0 318 8001 0 0 0 0 3 5 0 0 0 FFFFTFTFFFFFFF2 81 1 316 136 315 296 0
 298 319 311 320 81 1 289 174 315 15 0 286 311 321 322 83 255 3 317 .75294117647
0588 .752941176470588 .752941176470588 81 1 321 388 315 211 0 283 289 282 323 83
 3 322 .752941176470588 .752941176470588 .752941176470588 81 1 283 456 281 211 3
21 0 280 286 324 81 1 282 389 315 164 0 280 321 325 326 83 3 323 .75294117647058
8 .752941176470588 .752941176470588 81 1 325 390 315 111 0 210 282 327 328 83 3
 326 .752941176470588 .752941176470588 .752941176470588 81 1 210 454 281 111 325
 0 200 280 329 81 1 327 391 315 163 0 200 325 330 331 83 3 328 .752941176470588
 .752941176470588 .752941176470588 81 1 200 453 281 163 327 0 162 210 332 81 1 3
30 392 315 97 0 162 327 333 334 83 3 331 .752941176470588 .752941176470588 .7529
41176470588 81 1 162 452 281 97 330 0 152 200 335 81 1 333 393 315 142 0 152 330
 0 336 83 3 334 .752941176470588 .752941176470588 .752941176470588 81 1 152 451
 281 142 333 0 0 162 337 83 3 336 .752941176470588 .752941176470588 .75294117647
0588 82 1 337 1745354859 82 1 335 1739718763 82 1 332 1740046443 82 1 329 174764
8619 82 1 324 1784610923 81 1 298 459 281 296 316 0 290 300 338 81 1 319 135 315
 299 0 300 303 316 339 83 3 320 .752941176470588 .752941176470588 .7529411764705
88 81 1 300 460 281 299 319 0 298 302 340 81 1 303 134 315 292 0 302 341 319 342
 83 3 339 .752941176470588 .752941176470588 .752941176470588 81 1 341 133 315 17
 0 290 0 303 343 83 3 342 .752941176470588 .752941176470588 .752941176470588 81
 1 290 458 281 17 341 0 286 298 344 83 3 343 .752941176470588 .752941176470588 .
752941176470588 82 1 344 194183271 82 1 340 193658983 82 1 338 193396839 79 255
 15 318 SDL/TYSA_COLOUR79 14 314 SWEntUnchanged82 1 305 193921127 82 1 291 17835
62347 82 1 284 1784086635 17 29 0 27 25 183 51 82 116 0 0 +17 82 0 92 93 80 76 2
9 116 0 101 -16 116 206 0 ?29 98 122 137 0 0 1 16 115 196 0 ?100 242 228 188 0 0
 1 17 74 0 109 100 78 72 113 221 0 114 -16 31 213 0 952328014137052e-21 30 221 9
8 0 0 0 1 134 117 315 0 1 188 110 345 +346 347 141 345 188 345 345 117 136 346 3
 5 3 3 6 FFF1 348 349 350 135 347 2 0 45 15 348 .4787923263406 -.243527687531534
 .0363404283614264 .478944014436767 -.2436152646946895 .0365370540922609 .481977
776360118 -.245366807957793 .0404695687089512 .485820195382518 -.247603174186663
5 .0454603774425067 .484977925610102 -.249062028226168 .0454603774425067 127 3 3
49 4 1 4 128 3 350 0 .05 1 134 141 325 0 1 137 99 351 +352 353 141 351 137 351 3
51 141 136 352 3 5 3 3 6 FFF1 354 355 356 135 353 2 0 45 15 354 .4770922463406 -
.246472312468466 .0363404283614264 .477243934436767 -.246559889631621 .036537054
0922609 .480277696360118 -.248311432894725 .0404695687089512 .484135655837685 -.
2505208822656725 .0454603774425067 .484977925610102 -.249062028226168 .045460377
4425067 127 3 355 4 1 4 128 3 356 0 .05 1 141 127 124 127 127 125 136 128 3 5 3
 3 6 FFF1 357 358 359 135 129 2 0 45 15 357 .486602540378444 -.25 0 .48718735397
959 -.2489870731298585 0 .481866906594973 -.245302797269042 0 .478938734924141 -
.2436122165666535 0 .4787923263406 -.243527687531534 0 127 3 358 4 1 4 128 3 359
 0 .95 1 19 16 95 0 1 0 9 5 S0 141 20 19 20 20 7 74 4 CI16 index_map_offset0 0 1
 dCCZ20 14 3 0 0 304 2 333 0 0 0 0 0 0 0 0 0 0 0 0 0 0 0 0 0 80 2 12 360 361 800
4 0 0 0 0 3 5 0 0 0 FFTFFFFFFFFFFF2 3 83 1 13 78e2 79 16 361 SDL/TYSA_DENSITY1 0
 
