**ABCDEFGHIJKLMNOPQRSTUVWXYZabcdefghijklmnopqrstuvwxyz**************************
**PARASOLID !"#$%&'()*+,-./:;<=>?@[\]^_`{|}~0123456789**************************
**PART1;
MC=AMD64;
MC_MODEL=Intel64 Family 6 Model 60 Stepping 3, GenuineIntel;
MC_ID=unknown;
OS=Windows_NT;
OS_RELEASE=unknown;
FRU=Parasolid Version 28.0, build 204, 11- 9-2015;
APPL=SOLIDWORKS 2016-2016040;
SITE=;
USER=unknown;
FORMAT=text;
GUISE=transmit;
KEY=fluid domain;
FILE=fluid domain.x_t;
DATE=Wed Dec 07 10:55:23 2016;
**PART2;
SCH=SCH_2800204_28002;
USFLD_SIZE=0;
**PART3;
**END_OF_HEADER*****************************************************************
T51 : TRANSMIT FILE created by modeller version 280020423 SCH_2800204_28002_1300
6200 0 12 30 CCCCCCCCCCCCCDI5 owner1040 0 CCCCCCCCCA13 boundary_mesh1006 0 A16 i
ndex_map_offset0 0 1 dA9 index_map82 0 A17 node_id_index_map82 0 A20 schema_embe
dding_map82 0 A5 child12 0 A14 lowest_node_id0 0 1 dZ1 462 2 3 0 0 0 0 1e3 1e-8
 0 4 0 1 0 1 1 5 6 7 8 9 10 11 0 0 0 0 0 0 0 81 255 2 2 132 12 1 0 0 0 0 13 0 70
 11 CI9 list_type0 0 1 uI10 notransmit0 0 1 lCCCDCCDI12 finger_index0 0 1 dI12 f
inger_block1012 0 CZ3 0 4 T1 0 0 3 20 1 14 14 13 255 5 94 0 1 0 15 0 0 16 0 50 2
55 6 89 0 17 18 0 0 +0 0 .5 1 0 0 0 0 -1 30 255 7 172 0 1 19 0 20 +.012547419621
55642 .02173276828842235 0 -.866025403784438 .5 0 29 255 8 146 0 11 21 0 .486602
540378444 -.25 0 19 8 CCCCCCCA5 owner12 0 Z9 28 0 1 16 0 22 V0 16 255 10 169 0 ?
23 0 24 19 0 0 1 18 255 11 144 0 25 0 26 8 2e-6 1 17 255 25 0 27 28 29 11 30 31
 32 33 -18 26 25 0 34 11 35 36 ?1 17 34 0 37 38 39 26 40 41 0 42 +18 35 22 0 39
 26 43 44 ?1 29 36 27 0 26 44 45 0 0 .5 29 44 24 0 35 46 36 1.9 232682891837997e
-30 .5 29 45 73 0 47 36 48 0 -.7 0 18 47 64 0 49 50 51 45 ?1 29 48 72 0 50 45 52
 1.9 -.7 0 18 50 63 0 53 54 47 48 ?1 29 52 71 0 54 48 21 1.9 232682891837997e-30
 0 18 54 62 0 55 56 50 52 ?1 29 21 70 0 56 52 8 0 0 0 18 56 61 0 57 58 54 21 ?1
 17 57 0 59 42 60 56 61 62 0 63 +18 58 16 0 64 43 56 65 ?1 17 64 0 66 67 68 58 6
9 70 0 38 -18 43 19 0 69 35 58 46 ?1 29 65 18 0 58 71 46 0 -.7 .5 29 71 357 0 72
 73 65 .4787923263406 -.243527687531534 .0363404283614264 29 46 21 0 43 65 44 1.
9 -.7 .5 18 72 244 0 74 75 76 71 2061552815236075e-23 1 29 73 358 0 75 77 71 .41
38404210567665 -.206027687531534 -2659909329831105e-32 18 75 243 0 78 51 72 73 2
06155281863139e-22 1 29 77 359 0 51 79 73 .4849779256101 -.2490620282261675 .046
7137107332888 18 51 247 0 80 47 75 77 2e-6 1 29 79 360 0 76 81 77 .4770922463406
 -.246472312468466 .0363404283614264 18 76 249 0 82 72 83 79 2061552815236075e-2
3 1 29 81 362 0 83 84 79 .4787923263406 -.243527687531534 0 18 83 246 0 85 76 86
 81 2061552813040235e-23 1 29 84 366 0 87 88 81 .4121403410567665 -.208972312468
466 2659909329831105e-32 18 87 248 0 23 86 89 84 206155281863139e-22 1 29 88 367
 0 89 90 84 .4770922463406 -.246472312468466 0 18 89 245 0 28 87 0 88 2061552813
040235e-23 1 29 90 368 0 86 0 88 .4 -.2 0 18 86 251 0 91 83 87 90 66351907441508
8e-21 1 17 91 0 92 80 93 86 94 95 0 96 +15 255 92 279 0 91 97 0 17 80 0 92 82 91
 51 96 98 99 100 -17 93 0 92 91 82 87 101 102 0 94 +17 94 0 103 104 105 87 91 95
 0 0 -16 95 228 0 ?91 106 107 108 0 0 1 17 96 0 109 78 100 86 80 98 110 105 +15
 109 269 0 78 111 0 17 78 0 109 74 96 75 105 112 0 113 -17 100 0 109 96 74 51 11
4 115 0 30 +16 98 209 0 663217582782784e-21 96 31 116 0 0 0 1 133 255 110 314 0
 96 117 118 0 +118 .484977925610102 -.249062028226168 .0467137107332878 .4 -.2 0
 1 0 17 105 0 103 94 119 86 78 112 0 0 +15 103 170 0 104 15 0 17 119 0 103 105 1
20 75 85 24 0 0 -16 112 190 0 ?105 102 106 121 0 0 1 16 102 180 0 ?93 122 112 12
3 0 0 1 16 106 199 0 ?120 112 95 124 0 0 1 133 121 340 0 112 125 126 0 +126 .413
8404210567665 -.206027687531534 0 .4 -.2 0 0 1 134 255 125 341 0 1 124 121 127 +
128 129 134 126 339 0 1 121 32 130 +131 132 133 32 328 0 25 126 133 0 +133 .4849
77925610102 -.249062028226168 .0467137107332878 .486602540378444 -.25 0 0 1 141
 255 130 121 130 130 126 136 255 131 3 5 3 3 6 FFF1 134 135 136 135 255 132 2 0
 45 255 15 134 .4138404210567665 -.206027687531534 0 .4136225285603345 -.2059018
872400645 0 .4092646786316965 -.2033858814106775 0 .4007242026291125 -.198745644
251402 0 .4 -.2 0 127 255 3 135 4 1 4 128 255 3 136 0 .05 1 137 255 133 327 0 1
 32 137 138 +139 140 0 ?133 137 326 0 116 133 141 0 +141 .4770922463406 -.246472
312468466 .0363404283614264 .484977925610102 -.249062028226168 .0467137107332878
 0 1 141 138 32 138 138 133 124 255 139 302 0 142 0 143 144 -145 146 134 140 0 0
 0 0 0 0 +147 148 136 147 1 2 2 2 5 FFF1 149 150 151 135 148 2 0 45 4 149 1 0 1
 1 127 2 150 2 2 128 2 151 0 1 14 255 142 280 152 ?0 97 27 5 139 -0 0 0 97 22 12
4 143 301 0 97 139 153 154 -155 156 141 144 133 144 144 139 126 255 145 FF3 3 5
 6 6 6 3 3 FFF2 3 157 158 159 160 161 125 255 146 0 1 0 1 0 1 0 1 2 BBBBBBBB????
0 0 0 0 45 90 157 .4770922463406 -.246472312468466 .0363404283614264 .4770922463
406 -.246472312468466 .0352857398160419 .4770922463406 -.246472312468466 .034231
05127065735 .4770922463406 -.246472312468466 .0221175751501819 .4770922463406 -.
246472312468466 .01105878757509094 .4770922463406 -.246472312468466 0 .477232856
35736 -.2465534936994935 .0365477424877341 .477234444554277 -.246554410645411 .0
3548570204552825 .477235932183156 -.2465552695283445 .03442365173528205 .4772447
78701201 -.246560377067919 .0222276580394349 .477241473597386 -.246558468865342
 .0111055234829861 .477238654924141 -.2465568415035855 0 .480045056692587 -.2481
77118320031 .04069402501388735 .480123066109279 -.2482221570777575 .039519328820
41455 .480180686244416 -.2482554240782905 .03831598805495175 .480325558885641 -.
2483390663367065 .0244840947586229 .480241571649896 -.2482905762835475 .01208424
218141554 .480166826594973 -.2482474222059735 0 .484135655837693 -.2505208822656
59 .0467137107332878 .485140220121149 -.251083611855243 .0459922024878114 .48577
5214627722 -.25143297023466 .0447015526578853 .485861033351477 -.251284327844877
5 .02888283922171245 .485939380064387 -.2511486273575095 .0144414196108562 .4860
17726777298 -.251012926870142 0 .484977925610102 -.249062028226168 .046713710733
2878 .485975017882714 -.2496376997181675 .0459922024878114 .486602540378444 -.25
 .0447015526578853 .486602540378445 -.25 .0288828392217124 .486602540378444 -.25
 .0144414196108562 .486602540378444 -.25 0 127 3 158 4 1 4 127 3 159 4 2 4 128 3
 160 0 .05 1 128 3 161 0 .0870673731383997 1 14 97 277 162 ?142 163 92 5 143 -0
 0 142 111 22 50 153 300 0 164 143 165 0 +.39914996 -.201472312468466 0 .5 .8660
25403784438 0 .866025403784438 -.5 0 141 154 166 154 154 143 126 155 FF3 3 5 8 6
 6 3 4 FFF2 3 167 168 169 170 171 125 156 0 1 0 1 0 1 0 1 2 BBBBBBBB????0 0 0 0
 45 120 167 .4121403410567665 -.208972312468466 0 .412593220581512 -.20923378258
3988 .000253384960047637 .413046100106257 -.20949525269951 .000506769920095274 .
4338828552848805 -.2215253589109265 .01216488226559754 .454266730938759 -.233293
9950068215 .0235696096510522 .475464486508625 -.245532524891299 .035429700811480
05 .476278366424612 -.2460024186798825 .0358850645864532 .4770922463406 -.246472
312468466 .0363404283614264 .4119224485603345 -.2088465121769965 0 .412367952562
2295 -.2091037240324155 .000262175055474778 .412819781624671 -.209364587663244 .
000523231572764904 .433775209438795 -.221463209552712 .01225434521055782 .454275
178420297 -.233298872162561 .02373048723096255 .47559366264962 -.245607104771076
 .03566484444370975 .47641561295379 -.246081658000449 .03611156187031925 .477232
85635736 -.2465534936994935 .0365477424877341 .4075645986316965 -.20633050634760
9 0 .40786259217658 -.2065025530009645 .0004379769640176025 .4082934119929515 -.
2067512869379185 .000852464626157506 .431622292517088 -.2202202223884145 .014043
6041097635 .454444128051061 -.2333964152773485 .02694803882916925 .4781771854695
49 -.2470987023665985 .04036771708830395 .479160543537368 -.2476664444117635 .04
06415075476401 .480045056692587 -.248177118320031 .04069402501388735 .3992757973
708875 -.2012543557485975 0 .3994626028423185 -.2013641091001875 .00062684124454
3303 .3999087357961775 -.2016235852435655 .001207822423515862 .4272822433103625
 -.217515158683438 .0164599808033768 .454060797293282 -.2330613343795055 .031380
6389002425 .481908555564727 -.249228232080764 .0468970435648643 .48311859716351
 -.249930266544945 .0470213817375675 .484135655837693 -.250520882265659 .0467137
107332878 .4 -.2 0 .4 -.2 .000766388457057767 .400379503632821 -.200219106524567
5 .001465664623036396 .4278605036846975 -.2160852693021185 .01684121533739155 .4
54744213892914 -.231606586627648 .0318825838798813 .482701327028877 -.2477476334
224615 .0475245186725572 .48398083333749 -.2484863567341685 .0474352189787637 .4
84977925610102 -.249062028226168 .0467137107332878 127 3 168 4 1 4 127 4 169 4 2
 2 4 128 3 170 0 .05 1 128 4 171 0 .02091760924177155 .962408496913326 1 137 166
 323 0 1 99 123 172 +143 173 0 ?133 99 324 0 80 141 166 0 +166 .4 -.2 0 .4849779
25610102 -.249062028226168 .0467137107332878 0 1 133 123 322 0 102 166 174 0 +17
4 .477092246340599 -.246472312468466 .03634042836142645 .4121403410567665 -.2089
72312468466 -797972798949331e-31 -.0416702133828588 .041670213382859 141 172 99
 172 172 166 134 173 0 0 0 0 0 0 +175 176 136 175 1 2 2 2 5 FFF1 177 178 179 135
 176 2 0 45 4 177 1 0 1 1 127 2 178 2 2 128 2 179 0 1 30 174 321 0 1 123 180 181
 +.444616293698683 -.227722312468466 .01817021418071325 -.779356523652347 .44996
16987253745 -.436048023411073 133 180 320 0 122 174 182 0 +182 .477092246340599
 -.246472312468466 0 .4770922463406 -.246472312468466 .0363404283614264 -.018170
2141807132 .0181702141807132 141 181 123 181 181 174 16 122 177 0 ?183 116 102 1
80 0 0 1 30 182 319 0 1 180 184 185 +.4770922463406 -.246472312468466 .018170214
1807132 1027983263144494e-31 1780519241096705e-31 1 133 184 318 0 30 182 186 0 +
186 .486602540378444 -.25 0 .484977925610102 -.249062028226168 .0467137107332878
 1 0 141 185 180 185 185 182 17 30 0 187 114 33 51 25 31 184 29 +137 186 317 0 1
 184 188 189 -165 190 0 ?133 188 316 0 115 186 117 0 +117 .4787923263406 -.24352
7687531534 .0363404283614264 .484977925610102 -.249062028226168 .046713710733287
8 0 1 141 189 184 189 189 186 124 165 299 0 163 153 191 192 +193 194 134 190 0 0
 0 0 0 0 +195 196 136 195 1 2 2 2 5 FFF1 197 198 199 135 196 2 0 45 4 197 1 0 1
 1 127 2 198 2 2 128 2 199 0 1 14 163 270 200 ?97 111 187 5 165 -0 0 111 164 22
 124 191 298 0 111 165 201 202 +203 204 141 192 186 192 192 165 126 193 FF3 3 5
 6 6 6 3 3 FFF2 3 205 206 207 208 209 125 194 0 1 0 1 0 1 0 1 2 BBBBBBBB????0 0
 0 0 45 90 205 .4787923263406 -.243527687531534 .0363404283614264 .4787923263406
 -.243527687531534 .0352857398160419 .4787923263406 -.243527687531534 .034231051
27065735 .4787923263406 -.243527687531534 .0221175751501819 .4787923263406 -.243
527687531534 .01105878757509094 .4787923263406 -.243527687531534 0 .478932936357
36 -.243608868762562 .0365477424877341 .478934524554277 -.243609785708479 .03548
570204552825 .478936012183156 -.243610644591413 .03442365173528205 .478944858701
201 -.2436157521309875 .0222276580394349 .478941553597386 -.2436138439284105 .01
11055234829861 .478938734924141 -.2436122165666535 0 .481745136692569 -.24523249
3383131 .04069402501388735 .481823146109261 -.2452775321408565 .0395193288204145
5 .481880766244399 -.2453107991413885 .03831598805495175 .482025638885629 -.2453
944413997945 .0244840947586229 .481941651649891 -.2453459513466255 .012084242181
41554 .481866906594973 -.245302797269042 0 .48582019538251 -.2476031741866775 .0
467137107332878 .486809815644278 -.248191787581092 .0459922024878114 .4874298661
29165 -.24856702976534 .0447015526578853 .487344047405412 -.2487156721551235 .02
888283922171245 .487265700692501 -.2488513726424905 .0144414196108562 .487187353
97959 -.2489870731298585 0 .484977925610102 -.249062028226168 .0467137107332878
 .485975017882714 -.2496376997181675 .0459922024878114 .486602540378444 -.25 .04
47015526578853 .486602540378445 -.25 .0288828392217124 .486602540378444 -.25 .01
44414196108562 .486602540378444 -.25 0 127 3 206 4 1 4 127 3 207 4 2 4 128 3 208
 0 .05 1 128 3 209 0 .0870673731383997 1 14 111 267 210 ?163 164 109 5 191 -0 0
 97 163 22 50 201 297 0 211 191 212 0 +.40085004 -.198527687531534 0 -.5 -.86602
5403784438 0 .866025403784438 -.5 0 141 202 118 202 202 191 126 203 FF3 3 5 8 6
 6 3 4 FFF2 3 213 214 215 216 217 125 204 0 1 0 1 0 1 0 1 2 BBBBBBBB????0 0 0 0
 45 120 213 .4138404210567665 -.206027687531534 0 .414293300581512 -.20628915764
7056 .000253384960047637 .414746180106257 -.2065506277625785 .000506769920095274
 .4355829352848805 -.218580733973995 .01216488226559754 .455966810938759 -.23034
93700698895 .0235696096510522 .477164566508625 -.2425878999543675 .0354297008114
8005 .477978446424612 -.2430577937429505 .0358850645864532 .4787923263406 -.2435
27687531534 .0363404283614264 .4136225285603345 -.2059018872400645 0 .4140680325
622295 -.2061590990954835 .000262175055474778 .414519861624671 -.206419962726312
 .000523231572764904 .435475289438795 -.2185185846157805 .01225434521055782 .455
975258420297 -.2303542472256295 .02373048723096255 .47729374264962 -.24266247983
4144 .03566484444370975 .47811569295379 -.2431370330635175 .03611156187031925 .4
7893293635736 -.243608868762562 .0365477424877341 .4092646786316965 -.2033858814
106775 0 .40956267217658 -.203557928064033 .0004379769640176025 .409993491992951
 -.203806662000987 .000852464626157506 .433322372517082 -.2172755974514935 .0140
436041097635 .456144208051049 -.230451790340437 .02694803882916925 .479877265469
531 -.244154077429698 .04036771708830395 .48086062353735 -.244721819474863 .0406
415075476401 .481745136692569 -.245232493383131 .04069402501388735 .400724202629
1125 -.198745644251402 0 .4009126545554555 -.1988525458594325 .00062684124454330
3 .4013604339642265 -.1991091702592505 .001207822423515862 .428809694026354 -.21
4869536437283 .0164599808033768 .455662354102305 -.2302873566150705 .03138063890
02425 .483587177347701 -.2463207738659605 .0468970435648643 .484800177827406 -.2
470176833980525 .0470213817375675 .48582019538251 -.2476031741866775 .0467137107
332878 .4 -.2 0 .4 -.2 .000766388457057767 .400379503632821 -.2002191065245675 .
001465664623036396 .4278605036846975 -.2160852693021185 .01684121533739155 .4547
44213892914 -.231606586627648 .0318825838798813 .482701327028877 -.2477476334224
615 .0475245186725572 .48398083333749 -.2484863567341685 .0474352189787637 .4849
77925610102 -.249062028226168 .0467137107332878 127 3 214 4 1 4 127 4 215 4 2 2
 4 128 3 216 0 .05 1 128 4 217 0 .02091760924177155 .962408496913326 1 137 118 3
13 0 1 110 218 219 -191 220 0 ?133 218 312 0 221 118 222 0 +222 .478792326340599
 -.243527687531534 .03634042836142645 .4138404210567665 -.206027687531534 -79797
2798949331e-31 -.0416702133828588 .041670213382859 141 219 110 219 219 118 134 2
20 0 0 0 0 0 0 +223 224 136 223 1 2 2 2 5 FFF1 225 226 227 135 224 2 0 45 4 225
 1 0 1 1 127 2 226 2 2 128 2 227 0 1 16 221 193 0 ?113 228 31 218 0 0 1 30 222 3
11 0 1 218 229 230 +.446316373698683 -.224777687531534 .01817021418071325 -.7793
56523652347 .4499616987253745 -.436048023411073 133 229 310 0 228 222 231 0 +231
 .4787923263406 -.243527687531534 0 .4787923263406 -.243527687531534 .0363404283
614264 -.0181702141807132 .0181702141807132 141 230 218 230 230 222 16 228 202 0
 ?232 115 221 229 0 0 1 30 231 309 0 1 229 233 234 +.4787923263406 -.24352768753
1534 .0181702141807132 -1027983263144494e-31 -1780519241096705e-31 1 30 233 5 0
 235 231 236 0 +0 0 .5 0 -1 0 141 234 229 234 234 231 16 235 4 0 ?38 70 62 233 0
 0 1 30 236 8 0 70 233 237 0 +0 -.7 .5 1 1168655815394902e-31 0 16 70 7 0 ?69 23
8 235 236 0 0 1 30 237 11 0 238 236 239 0 +1.9 232682891837997e-30 .5 0 1 0 16 2
38 10 0 ?39 41 70 237 0 0 1 30 239 14 0 41 237 240 0 +0 0 .5 -1 -122464679914735
2e-31 0 16 41 13 0 ?34 241 238 239 0 0 1 30 240 69 0 242 239 243 0 +0 0 0 0 -1 0
 16 242 57 0 ?244 245 115 240 0 0 1 30 243 68 0 245 240 246 0 +0 -.7 0 1 1168655
815394902e-31 0 16 245 53 0 ?53 247 242 243 0 0 1 30 246 67 0 247 243 248 0 +1.9
 232682891837997e-30 0 0 1 0 16 247 49 0 ?55 62 245 246 0 0 1 30 248 66 0 62 246
 249 0 +0 0 0 -1 -1224646799147352e-31 0 16 62 45 0 ?57 235 247 248 0 0 1 30 249
 90 0 241 248 250 0 +0 0 .5 0 0 -1 16 241 74 0 ?63 251 41 249 0 0 1 30 250 91 0
 251 249 252 0 +1.9 232682891837997e-30 .5 0 0 -1 16 251 75 0 ?60 253 241 250 0
 0 1 30 252 92 0 253 250 254 0 +1.9 -.7 .5 0 0 -1 16 253 76 0 ?255 256 251 252 0
 0 1 30 254 93 0 256 252 257 0 +0 -.7 .5 0 0 -1 16 256 77 0 ?67 24 253 254 0 0 1
 133 257 157 0 24 254 258 0 +258 .413840421056767 -.2060276875315345 48572257327
3506e-31 .4787923263406 -.243527687531534 -1734723475976805e-33 .461410161513776
 .536410161513776 16 24 155 0 ?85 10 256 257 0 0 1 30 258 158 0 1 257 19 259 +.0
1424749962155642 .024677393225354 0 .866025403784438 -.5 0 133 19 171 0 10 258 7
 0 +7 .4770922463406 -.246472312468466 1734723475976805e-33 .412140341056767 -.2
08972312468466 -1110223024625156e-31 -.536410161513776 -.461410161513776 141 259
 257 259 259 258 17 85 0 260 232 113 83 119 24 0 261 +15 260 258 0 85 211 0 17 2
32 0 260 113 85 72 261 228 0 0 +17 113 0 260 85 232 75 74 221 0 119 +17 261 0 18
7 33 114 83 232 228 0 120 -15 187 272 0 114 163 0 17 33 0 187 30 261 11 120 106
 0 262 -17 114 0 187 261 30 72 100 115 0 232 -17 120 0 103 119 262 83 33 106 0 0
 +17 262 0 103 120 104 11 28 107 0 0 -17 104 0 103 262 94 89 23 10 0 0 -17 28 0
 27 183 25 89 262 107 0 263 +16 107 237 0 ?28 95 0 264 0 0 1 133 264 356 0 107 0
 265 0 +265 .486602540378444 -.25 0 .4770922463406 -.246472312468466 0 0 1 134 2
65 355 0 1 264 108 266 +267 268 133 108 354 0 95 265 269 0 +269 .412140341056766
5 -.208972312468466 0 .4 -.2 0 0 1 141 266 264 266 266 265 136 267 3 5 3 3 6 FFF
1 270 271 272 135 268 2 0 45 15 270 .486602540378444 -.25 0 .486017726777298 -.2
51012926870142 0 .480166826594973 -.2482474222059735 0 .477238654924141 -.246556
8415035855 0 .4770922463406 -.246472312468466 0 127 3 271 4 1 4 128 3 272 0 .95
 1 134 269 353 0 1 108 124 273 +274 275 133 124 342 0 106 269 125 0 +125 .486602
540378444 -.25 0 .4787923263406 -.243527687531534 0 0 1 141 273 108 273 273 269
 136 274 3 5 3 3 6 FFF1 276 277 278 135 275 2 0 45 15 276 .4121403410567665 -.20
8972312468466 0 .4119224485603345 -.2088465121769965 0 .4075645986316965 -.20633
0506347609 0 .3992757973708875 -.2012543557485975 0 .4 -.2 0 127 3 277 4 1 4 128
 3 278 0 .05 1 15 27 282 0 29 142 0 17 183 0 27 29 28 76 263 122 0 0 +17 263 0 2
79 23 101 89 183 122 0 104 -15 279 262 0 23 164 0 17 23 0 279 101 263 87 104 10
 0 93 +17 101 0 279 263 23 76 93 102 0 183 -14 164 259 280 ?111 211 279 5 153 +0
 0 163 211 22 81 1 280 455 281 164 282 0 210 283 284 14 211 255 283 ?164 285 260
 5 201 +0 0 164 285 22 13 22 29 0 0 0 0 0 0 9 15 14 15 173 286 ?17 0 287 5 288 -
0 0 17 0 22 81 1 286 457 281 15 289 0 283 290 291 14 17 85 290 ?292 15 293 5 6 -
0 0 292 15 22 15 287 44 0 294 15 103 50 288 65 0 15 212 295 0 +0 0 0 0 0 1 1 0 0
 50 212 2 0 285 201 288 0 +0 0 .5 0 0 1 1 0 0 50 295 86 0 296 288 297 0 +0 0 .5
 1224646799147352e-31 -1 0 1 1224646799147352e-31 0 14 296 79 298 ?285 299 59 5
 295 -0 0 285 299 22 50 297 87 0 299 295 18 0 +1.9 232682891837997e-30 .5 -1 0 0
 0 0 1 14 299 81 300 ?296 292 301 5 297 -0 0 296 292 22 50 18 88 0 292 297 6 0 +
0 -.7 .5 -1168655815394902e-31 1 0 -1 -1168655815394902e-31 0 14 292 83 302 ?299
 17 66 5 18 -0 0 299 17 22 81 1 302 461 281 292 303 0 300 304 305 15 66 82 0 53
 292 0 17 53 0 66 68 67 50 49 245 0 255 +17 68 0 66 64 53 43 255 253 0 306 -17 6
7 0 66 53 64 47 307 256 0 244 +17 49 0 287 294 308 47 53 245 0 67 -17 255 0 301
 55 306 50 68 253 0 308 +15 301 80 0 55 299 0 17 55 0 301 309 255 54 308 247 0 6
0 +17 306 0 301 255 309 43 39 238 0 0 -17 308 0 287 49 61 50 55 247 0 0 -17 61 0
 287 308 294 54 57 62 0 0 -17 294 0 287 61 49 56 244 242 0 0 -17 244 0 293 307 6
3 47 294 242 0 0 +15 293 84 0 244 17 0 17 307 0 293 310 244 58 67 256 0 0 -17 63
 0 293 244 310 56 42 241 0 294 +17 310 0 293 63 307 26 38 235 0 0 -17 42 0 59 40
 57 26 63 241 0 310 -15 59 78 0 57 296 0 17 40 0 59 60 42 35 34 41 0 0 -17 60 0
 59 57 40 54 309 251 0 61 +17 309 0 301 306 55 35 60 251 0 40 -17 38 0 37 69 34
 58 310 235 0 307 +15 37 3 0 38 285 0 17 69 0 37 39 38 43 64 70 0 68 +17 39 0 37
 34 69 35 306 238 0 309 +14 285 1 304 ?211 296 37 5 212 +0 0 211 296 22 81 1 304
 462 281 285 311 0 302 0 312 80 255 1 281 313 314 9000 1 1 1 1 1 1 1 1 0 FFFFTFT
FFFFFFF1 81 1 311 137 315 285 0 304 316 289 317 82 255 1 312 186843239 80 1 315
 0 318 8001 0 0 0 0 3 5 0 0 0 FFFFTFTFFFFFFF2 81 1 316 136 315 296 0 298 319 311
 320 81 1 289 174 315 15 0 286 311 321 322 83 255 3 317 .752941176470588 .752941
176470588 .752941176470588 81 1 321 391 315 211 0 283 289 282 323 83 3 322 .7529
41176470588 .752941176470588 .752941176470588 81 1 283 456 281 211 321 0 280 286
 324 81 1 282 392 315 164 0 280 321 325 326 83 3 323 .752941176470588 .752941176
470588 .752941176470588 81 1 325 393 315 111 0 210 282 327 328 83 3 326 .7529411
76470588 .752941176470588 .752941176470588 81 1 210 454 281 111 325 0 200 280 32
9 81 1 327 394 315 163 0 200 325 330 331 83 3 328 .752941176470588 .752941176470
588 .752941176470588 81 1 200 453 281 163 327 0 162 210 332 81 1 330 395 315 97
 0 162 327 333 334 83 3 331 .752941176470588 .752941176470588 .752941176470588 8
1 1 162 452 281 97 330 0 152 200 335 81 1 333 396 315 142 0 152 330 0 336 83 3 3
34 .752941176470588 .752941176470588 .752941176470588 81 1 152 451 281 142 333 0
 0 162 337 83 3 336 .752941176470588 .752941176470588 .752941176470588 82 1 337
 -1311899539 82 1 335 -1317535635 82 1 332 -1317207955 82 1 329 -1309605779 82 1
 324 -1272643475 81 1 298 459 281 296 316 0 290 300 338 81 1 319 135 315 299 0 3
00 303 316 339 83 3 320 .752941176470588 .752941176470588 .752941176470588 81 1
 300 460 281 299 319 0 298 302 340 81 1 303 134 315 292 0 302 341 319 342 83 3 3
39 .752941176470588 .752941176470588 .752941176470588 81 1 341 133 315 17 0 290
 0 303 343 83 3 342 .752941176470588 .752941176470588 .752941176470588 81 1 290
 458 281 17 341 0 286 298 344 83 3 343 .752941176470588 .752941176470588 .752941
176470588 82 1 344 194183271 82 1 340 193658983 82 1 338 193396839 79 255 15 318
 SDL/TYSA_COLOUR79 14 314 SWEntUnchanged82 1 305 193921127 82 1 291 -1273692051
 82 1 284 -1273167763 17 29 0 27 25 183 51 82 116 0 0 +17 82 0 92 93 80 76 29 11
6 0 101 -16 116 206 0 ?29 98 122 137 0 0 1 16 115 196 0 ?100 242 228 188 0 0 1 1
7 74 0 109 100 78 72 113 221 0 114 -16 31 213 0 2e-6 30 221 98 0 0 0 1 134 117 3
15 0 1 188 110 345 +346 347 141 345 188 345 345 117 136 346 3 5 3 3 6 FFF1 348 3
49 350 135 347 2 0 45 15 348 .4787923263406 -.243527687531534 .0363404283614264
 .47893293635736 -.243608868762562 .0365477424877341 .481745136692569 -.24523249
3383131 .04069402501388735 .48582019538251 -.2476031741866775 .0467137107332878
 .484977925610102 -.249062028226168 .0467137107332878 127 3 349 4 1 4 128 3 350
 0 .05 1 134 141 325 0 1 137 99 351 +352 353 141 351 137 351 351 141 136 352 3 5
 3 3 6 FFF1 354 355 356 135 353 2 0 45 15 354 .4770922463406 -.246472312468466 .
0363404283614264 .47723285635736 -.2465534936994935 .0365477424877341 .480045056
692587 -.248177118320031 .04069402501388735 .484135655837693 -.250520882265659 .
0467137107332878 .484977925610102 -.249062028226168 .0467137107332878 127 3 355
 4 1 4 128 3 356 0 .05 1 141 127 124 127 127 125 136 128 3 5 3 3 6 FFF1 357 358
 359 135 129 2 0 45 15 357 .486602540378444 -.25 0 .48718735397959 -.24898707312
98585 0 .481866906594973 -.245302797269042 0 .478938734924141 -.2436122165666535
 0 .4787923263406 -.243527687531534 0 127 3 358 4 1 4 128 3 359 0 .95 1 19 16 95
 0 1 0 9 5 S0 141 20 19 20 20 7 74 4 CI16 index_map_offset0 0 1 dCCZ20 14 3 0 0
 304 2 333 0 0 0 0 0 0 0 0 0 0 0 0 0 0 0 0 0 80 2 12 360 361 8004 0 0 0 0 3 5 0
 0 0 FFTFFFFFFFFFFF2 3 83 1 13 78e2 79 16 361 SDL/TYSA_DENSITY1 0 
