**ABCDEFGHIJKLMNOPQRSTUVWXYZabcdefghijklmnopqrstuvwxyz**************************
**PARASOLID !"#$%&'()*+,-./:;<=>?@[\]^_`{|}~0123456789**************************
**PART1;
MC=AMD64;
MC_MODEL=Intel64 Family 6 Model 60 Stepping 3, GenuineIntel;
MC_ID=unknown;
OS=Windows_NT;
OS_RELEASE=unknown;
FRU=Parasolid Version 28.0, build 204, 11- 9-2015;
APPL=SOLIDWORKS 2016-2016040;
SITE=;
USER=unknown;
FORMAT=text;
GUISE=transmit;
KEY=fluid domain;
FILE=fluid domain.x_t;
DATE=Fri Dec 02 13:21:59 2016;
**PART2;
SCH=SCH_2800204_28002;
USFLD_SIZE=0;
**PART3;
**END_OF_HEADER*****************************************************************
T51 : TRANSMIT FILE created by modeller version 280020423 SCH_2800204_28002_1300
6200 0 12 30 CCCCCCCCCCCCCDI5 owner1040 0 CCCCCCCCCA13 boundary_mesh1006 0 A16 i
ndex_map_offset0 0 1 dA9 index_map82 0 A17 node_id_index_map82 0 A20 schema_embe
dding_map82 0 A5 child12 0 A14 lowest_node_id0 0 1 dZ1 466 2 3 0 0 0 0 1e3 1e-8
 0 4 0 1 0 1 1 5 6 7 8 9 10 11 0 0 0 0 0 0 0 81 255 2 2 132 12 1 0 0 0 0 13 0 70
 11 CI9 list_type0 0 1 uI10 notransmit0 0 1 lCCCDCCDI12 finger_index0 0 1 dI12 f
inger_block1012 0 CZ3 0 4 T1 0 0 3 20 1 14 14 13 255 5 94 0 1 0 15 0 0 16 0 50 2
55 6 89 0 17 18 0 0 +0 0 .5 1 0 0 0 0 -1 30 255 7 172 0 1 19 0 20 +.012547419621
55642 .02173276828842235 0 -.866025403784438 .5 0 29 255 8 146 0 11 21 0 .486602
540378444 -.25 0 19 8 CCCCCCCA5 owner12 0 Z9 28 0 1 16 0 22 V0 16 255 10 169 0 ?
23 0 24 19 0 0 1 18 255 11 144 0 25 0 26 8 2061552814155265e-23 1 17 255 25 0 27
 28 29 11 30 31 0 32 +18 26 25 0 33 11 34 35 ?1 17 33 0 36 37 38 26 39 40 0 41 +
18 34 22 0 38 26 42 43 ?1 29 35 27 0 26 43 44 0 0 .5 29 43 24 0 34 45 35 1.9 232
682891837997e-30 .5 29 44 73 0 46 35 47 0 -.7 0 18 46 64 0 48 49 50 44 ?1 29 47
 72 0 49 44 51 1.9 -.7 0 18 49 63 0 52 53 46 47 ?1 29 51 71 0 53 47 21 1.9 23268
2891837997e-30 0 18 53 62 0 54 55 49 51 ?1 29 21 70 0 55 51 8 0 0 0 18 55 61 0 5
6 57 53 21 ?1 17 56 0 58 41 59 55 60 61 0 62 +18 57 16 0 63 42 55 64 ?1 17 63 0
 65 66 67 57 68 69 0 37 -18 42 19 0 68 34 57 45 ?1 29 64 18 0 57 70 45 0 -.7 .5
 29 70 353 0 50 71 64 .4787923263406 -.243527687531534 .0363404283614264 29 45 2
1 0 42 64 43 1.9 -.7 .5 18 50 240 0 72 46 73 70 554303948075668e-21 1 29 71 354
 0 73 74 70 .4138404210567665 -.206027687531534 -115648231731787e-32 18 73 239 0
 75 50 76 71 206155281332645e-22 1 29 74 355 0 77 78 71 .4770922463406 -.2464723
12468466 .0363404283614264 18 77 244 0 79 76 80 74 554303948075668e-21 1 29 78 3
56 0 76 81 74 .486602540378444 -.25 .0484539044819019 18 76 245 0 30 73 77 78 55
430394807608e-20 1 29 81 358 0 80 82 78 .4787923263406 -.243527687531534 0 18 80
 242 0 83 77 84 81 2061552812829865e-23 1 29 82 361 0 85 86 81 .4121403410567665
 -.208972312468466 115648231731787e-32 18 85 243 0 23 87 0 82 206155281332645e-2
2 1 29 86 362 0 87 88 82 .4770922463406 -.246472312468466 0 18 87 241 0 28 84 85
 86 2061552812829865e-23 1 29 88 363 0 84 0 86 .4 -.2 0 18 84 247 0 89 80 87 88
 206155281282589e-22 1 17 89 0 90 91 92 84 93 94 0 95 +15 255 90 275 0 89 96 0 1
7 91 0 90 79 89 76 95 97 0 98 +17 92 0 90 89 79 85 99 100 0 93 +17 93 0 101 102
 103 85 89 94 0 0 -16 94 218 0 ?89 104 0 105 0 0 1 17 95 0 106 75 98 84 91 97 0
 103 -15 106 265 0 75 107 0 17 75 0 106 72 95 73 103 108 0 109 -17 98 0 106 95 7
2 76 110 111 112 0 +16 97 193 0 ?91 31 113 114 0 0 1 17 103 0 101 93 115 84 75 1
08 0 0 +15 101 170 0 102 15 0 17 115 0 101 103 116 73 83 24 0 0 -16 108 190 0 ?1
03 117 104 118 0 0 1 16 117 205 0 ?116 100 108 119 0 0 1 16 104 233 0 ?28 108 94
 120 0 0 1 133 255 118 334 0 108 121 122 0 +122 .4138404210567665 -.206027687531
534 0 .4 -.2 0 0 1 134 255 121 335 0 1 119 118 123 -124 125 134 122 333 0 1 118
 114 126 +127 128 133 114 324 0 97 122 129 0 +129 .4 -.2 0 .486602540378444 -.25
 .0484539044819019 0 .111120569020957 141 255 126 118 126 126 122 136 255 127 3
 5 3 3 6 FFF1 130 131 132 135 255 128 2 0 45 255 15 130 .4138404210567665 -.2060
27687531534 0 .4136225285603345 -.2059018872400645 0 .4092646786316965 -.2033858
814106775 0 .4007242026291125 -.198745644251402 0 .4 -.2 0 127 255 3 131 4 1 4 1
28 255 3 132 0 .05 1 30 129 323 0 1 114 133 134 +.4 -.2 0 .779356523652348 -.449
961698725375 .436048023411072 133 133 322 0 31 129 135 0 +135 .486602540378444 -
.25 .0484539044819019 .486602540378444 -.25 0 0 .0484539044819019 141 134 114 13
4 134 129 16 31 202 0 ?25 136 97 133 0 0 1 30 135 321 0 1 133 137 138 +.48660254
0378444 -.25 .0484539044819019 0 0 -1 133 137 320 0 29 135 139 0 +139 .477092246
3406 -.246472312468466 .0363404283614264 .486602540378444 -.25 .0484539044819019
 0 1 141 138 133 138 138 135 17 29 0 27 25 140 76 79 113 137 91 +137 255 139 319
 0 1 137 141 142 +143 144 0 ?133 141 318 0 145 139 146 0 +146 .4770922463406 -.2
46472312468466 0 .4770922463406 -.246472312468466 .0363404283614264 -.0181702141
807132 .0181702141807132 141 142 137 142 142 139 124 255 143 298 0 147 0 148 149
 -150 151 134 144 0 0 0 0 0 0 +152 153 136 152 1 2 2 2 5 FFF1 154 155 156 135 15
3 2 0 45 4 154 0 219710310338133e-33 1 219710310338133e-33 127 2 155 2 2 128 2 1
56 0 1 14 255 147 276 157 ?0 96 27 5 143 -0 0 0 96 22 124 148 297 0 96 143 158 1
59 -160 161 141 149 139 149 149 143 126 255 150 FF3 3 7 4 4 5 5 2 FFF9 3 162 163
 164 165 166 125 255 151 0 1 0 1 0 1 0 1 2 BBBBBBBB????0 0 0 0 45 84 162 .477092
2463406 -.246472312468466 .0363404283614264 .4770922463406 -.246472312468466 .02
422695224095095 .4770922463406 -.246472312468466 .01211347612047546 .47709224634
06 -.246472312468466 0 .477818148803441 -.2468914124507925 .0373557798870278 .47
782019562173 -.246892594181883 .02490385325801855 .477822242440019 -.24689377591
2973 .01245192662900926 .477824289258308 -.246894957644063 0 .479534496129405 -.
247890276387899 .0397613131676455 .479452455784178 -.247840266923685 .0265075421
117637 .479370415438951 -.2477902574594715 .01325377105588184 .479288375093724 -
.2477402479952575 0 .48261330300179 -.249508553291359 .0439713074780562 .4822597
17211352 -.249293511662767 .0293142049853708 .481906131420913 -.249078470034175
 .0146571024926854 .481552545630475 -.2488634284055835 0 .48531204837012 -.25052
3436503953 .0474171355480387 .484858965491573 -.2502479905302945 .03161142369869
245 .484405882613025 -.2499725445566365 .01580571184934625 .483952799734478 -.24
96970985829785 0 .486380890438334 -.2503839089577645 .0484539044819019 .48615027
7860356 -.250243728794613 .0323026029879346 .485919665282378 -.250103548631462 .
0161513014939673 .485689052704399 -.249963368468311 0 .486602540378444 -.25 .048
4539044819019 .486602540378444 -.25 .0323026029879346 .486602540378444 -.25 .016
1513014939673 .486602540378444 -.25 0 127 5 163 4 1 1 1 4 127 2 164 4 4 128 5 16
5 0 .25 .5 .75 1 128 2 166 0 1 14 96 273 167 ?147 168 90 5 148 -0 0 147 107 22 5
0 158 296 0 169 148 170 0 +.39914996 -.201472312468466 0 .5 .866025403784438 0 .
866025403784438 -.5 0 141 159 171 159 159 148 126 160 FF3 3 5 4 6 5 3 2 FFF2 3 1
72 173 174 175 176 125 161 0 1 0 1 0 1 0 1 2 BBBBBBBB????0 0 0 0 45 60 172 .4121
403410567665 -.208972312468466 0 .4337909761513775 -.221472312468466 .0121134761
2047548 .455441611245989 -.233972312468466 .02422695224095095 .4770922463406 -.2
46472312468466 .0363404283614264 .4119224485603345 -.2088465121769965 0 .4336924
24326038 -.221415413545577 .01217784424774884 .455462493605312 -.233984368904242
5 .0243630565973957 .477237426833168 -.246556132464931 .0365434986665467 .407564
5986316965 -.206330506347609 0 .431724755136397 -.2202793792092615 .013471850742
08276 .455886688398935 -.2342292778825295 .0270836954202283 .480141036684532 -.2
48232532394238 .0406049047689522 .3992757973708875 -.2012543557485975 0 .4281039
551159345 -.2179891885122335 .0161513014939673 .456932112860981 -.23472402127586
9 .0323026029879346 .485760270606028 -.2514588540395045 .0484539044819019 .4 -.2
 0 .4288675134594815 -.2166666666666665 .0161513014939673 .457735026918963 -.233
3333333333335 .0323026029879346 .486602540378444 -.25 .0484539044819019 127 3 17
3 4 1 4 127 2 174 4 4 128 3 175 0 .05 1 128 2 176 0 1 137 171 315 0 1 177 178 17
9 +148 180 0 ?133 177 316 0 79 146 171 0 +171 .486602540378444 -.25 .04845390448
19019 .4770922463406 -.246472312468466 .0363404283614264 0 1 133 178 314 0 100 1
71 181 0 +181 .4770922463406 -.246472312468466 .03634042836142645 .4121403410567
665 -.208972312468466 -3469446951953615e-33 -.0416702133828589 .0416702133828589
 141 179 177 179 179 171 134 180 0 0 0 0 0 0 +182 183 136 182 1 2 2 2 5 FFF1 184
 185 186 135 183 2 0 45 4 184 1 1 0 1 127 2 185 2 2 128 2 186 0 1 16 100 180 0 ?
92 145 117 178 0 0 1 30 181 313 0 1 178 187 188 +.444616293698683 -.227722312468
466 .0181702141807132 -.779356523652348 .449961698725375 -.436048023411072 133 1
87 312 0 110 181 189 0 +189 .486602540378444 -.25 .0484539044819019 .47879232634
06 -.243527687531534 .0363404283614264 1 0 141 188 178 188 188 181 17 110 0 190
 191 30 50 98 111 187 192 -137 189 311 0 1 187 193 194 -170 195 0 ?133 193 310 0
 196 189 197 0 +197 .4787923263406 -.243527687531534 0 .4787923263406 -.24352768
7531534 .0363404283614264 -.0181702141807132 .0181702141807132 141 194 187 194 1
94 189 124 170 295 0 168 158 198 199 +200 201 134 195 0 0 0 0 0 0 +202 203 136 2
02 1 2 2 2 5 FFF1 204 205 206 135 203 2 0 45 4 204 0 219710310338133e-33 1 21971
0310338133e-33 127 2 205 2 2 128 2 206 0 1 14 168 266 207 ?96 107 190 5 170 -0 0
 107 169 22 124 198 294 0 107 170 208 209 +210 211 141 199 189 199 199 170 126 2
00 FF3 3 7 4 4 5 5 2 FFF9 3 212 213 214 215 216 125 201 0 1 0 1 0 1 0 1 2 BBBBBB
BB????0 0 0 0 45 84 212 .4787923263406 -.243527687531534 .0363404283614264 .4787
923263406 -.243527687531534 .02422695224095095 .4787923263406 -.243527687531534
 .01211347612047546 .4787923263406 -.243527687531534 0 .479518228803441 -.243946
787513861 .0373557798870278 .47952027562173 -.243947969244951 .02490385325801855
 .479522322440019 -.243949150976041 .01245192662900926 .479524369258308 -.243950
3327071315 0 .481241444010881 -.24493375593131 .0397613131676455 .48115711437182
9 -.2448877116403155 .0265075421117637 .481072784732776 -.2448416673493205 .0132
5377105588184 .480988455093724 -.2447956230583255 0 .484182316355827 -.246790942
444412 .0439713074780562 .483819291947377 -.246592248981771 .0293142049853708 .4
83456267538926 -.24639355551913 .0146571024926854 .483093243130475 -.24619486205
6489 0 .486410603683973 -.2486206828854345 .0474171355480387 .485945519034142 -.
248366024589422 .03161142369869245 .48548043438431 -.248111366293409 .0158057118
4934625 .485015349734478 -.247856707997396 0 .486824190318553 -.2496160910422355
 .0484539044819019 .486587484447169 -.2494864647728495 .0323026029879346 .486350
778575784 -.249356838503464 .0161513014939673 .486114072704399 -.249227212234078
 0 .486602540378444 -.25 .0484539044819019 .486602540378444 -.25 .03230260298793
46 .486602540378444 -.25 .0161513014939673 .486602540378444 -.25 0 127 5 213 4 1
 1 1 4 127 2 214 4 4 128 5 215 0 .25 .5 .75 1 128 2 216 0 1 14 107 263 217 ?168
 169 106 5 198 -0 0 96 168 22 50 208 293 0 218 198 219 0 +.40085004 -.1985276875
31534 0 -.5 -.866025403784438 0 .866025403784438 -.5 0 141 209 220 209 209 198 1
26 210 FF3 3 5 4 6 5 3 2 FFF2 3 221 222 223 224 225 125 211 0 1 0 1 0 1 0 1 2 BB
BBBBBB????0 0 0 0 45 60 221 .4138404210567665 -.206027687531534 0 .4354910561513
775 -.218527687531534 .01211347612047548 .457141691245989 -.231027687531534 .024
22695224095095 .4787923263406 -.243527687531534 .0363404283614264 .4136225285603
345 -.2059018872400645 0 .435392504326038 -.218470788608645 .01217784424774884 .
457162573605312 -.231039743967311 .0243630565973957 .478937506833168 -.243611507
5279995 .0365434986665467 .4092646786316965 -.2033858814106775 0 .43342483513639
7 -.2173347542723295 .01347185074208276 .457586768398935 -.231284652945598 .0270
836954202283 .481841116684532 -.2452879074573065 .0406049047689522 .400724202629
1125 -.198745644251402 0 .4296310718030285 -.2153441448211 .0161513014939673 .45
8537940976944 -.2319426453907975 .0323026029879346 .48744481015086 -.24854114596
04955 .0484539044819019 .4 -.2 0 .4288675134594815 -.2166666666666665 .016151301
4939673 .457735026918963 -.2333333333333335 .0323026029879346 .486602540378444 -
.25 .0484539044819019 127 3 222 4 1 4 127 2 223 4 4 128 3 224 0 .05 1 128 2 225
 0 1 137 220 307 0 1 112 226 227 -198 228 0 ?133 112 308 0 98 197 220 0 +220 .47
87923263406 -.243527687531534 .0363404283614264 .486602540378444 -.25 .048453904
4819019 1 0 133 226 306 0 136 220 229 0 +229 .4787923263406 -.243527687531534 .0
3634042836142645 .4138404210567665 -.206027687531534 -3469446951953615e-33 -.041
6702133828589 .0416702133828589 141 227 112 227 227 220 134 228 0 0 0 0 0 0 +230
 231 136 230 1 2 2 2 5 FFF1 232 233 234 135 231 2 0 45 4 232 1 1 0 1 127 2 233 2
 2 128 2 234 0 1 16 136 196 0 ?109 196 31 226 0 0 1 30 229 305 0 1 226 235 236 +
.446316373698683 -.224777687531534 .0181702141807132 -.779356523652348 .44996169
8725375 -.436048023411072 30 235 5 0 237 229 238 0 +0 0 .5 0 -1 0 141 236 226 23
6 236 229 16 237 4 0 ?37 69 61 235 0 0 1 30 238 8 0 69 235 239 0 +0 -.7 .5 1 116
8655815394902e-31 0 16 69 7 0 ?68 240 237 238 0 0 1 30 239 11 0 240 238 241 0 +1
.9 232682891837997e-30 .5 0 1 0 16 240 10 0 ?38 40 69 239 0 0 1 30 241 14 0 40 2
39 242 0 +0 0 .5 -1 -1224646799147352e-31 0 16 40 13 0 ?33 243 240 241 0 0 1 30
 242 69 0 244 241 245 0 +0 0 0 0 -1 0 16 244 57 0 ?246 247 111 242 0 0 1 30 245
 68 0 247 242 248 0 +0 -.7 0 1 1168655815394902e-31 0 16 247 53 0 ?52 249 244 24
5 0 0 1 30 248 67 0 249 245 250 0 +1.9 232682891837997e-30 0 0 1 0 16 249 49 0 ?
54 61 247 248 0 0 1 30 250 66 0 61 248 251 0 +0 0 0 -1 -1224646799147352e-31 0 1
6 61 45 0 ?56 237 249 250 0 0 1 30 251 90 0 243 250 252 0 +0 0 .5 0 0 -1 16 243
 74 0 ?62 253 40 251 0 0 1 30 252 91 0 253 251 254 0 +1.9 232682891837997e-30 .5
 0 0 -1 16 253 75 0 ?59 255 243 252 0 0 1 30 254 92 0 255 252 256 0 +1.9 -.7 .5
 0 0 -1 16 255 76 0 ?257 258 253 254 0 0 1 30 256 93 0 258 254 259 0 +0 -.7 .5 0
 0 -1 16 258 77 0 ?66 24 255 256 0 0 1 133 259 157 0 24 256 260 0 +260 .41384042
1056767 -.2060276875315345 832667268468867e-31 .4787923263406 -.243527687531534
 -1734723475976805e-33 .461410161513776 .536410161513776 16 24 155 0 ?83 10 258
 259 0 0 1 30 260 158 0 1 259 19 261 +.01424749962155642 .024677393225354 0 .866
025403784438 -.5 0 133 19 171 0 10 260 7 0 +7 .4770922463406 -.246472312468466 1
734723475976805e-33 .412140341056767 -.208972312468466 -832667268468867e-31 -.53
6410161513776 -.461410161513776 141 261 259 261 261 260 17 83 0 262 192 109 80 1
15 24 0 191 +15 262 254 0 83 218 0 17 192 0 262 109 83 50 191 196 0 0 +17 109 0
 262 83 192 73 72 136 0 115 +17 191 0 190 32 110 80 192 196 0 116 -15 190 268 0
 110 168 0 17 32 0 190 30 191 11 116 117 0 263 -16 196 208 0 ?192 111 136 193 0
 0 1 17 116 0 101 115 263 80 32 117 0 0 +17 263 0 101 116 102 11 28 104 0 0 -17
 102 0 101 263 93 87 23 10 0 0 -17 28 0 27 140 25 87 263 104 0 264 +15 27 278 0
 29 147 0 17 140 0 27 29 28 77 264 145 0 0 +17 264 0 265 23 99 87 140 145 0 102
 -15 265 258 0 23 169 0 17 23 0 265 99 264 85 102 10 0 92 +17 99 0 265 264 23 77
 92 100 0 140 -16 145 177 0 ?140 113 100 141 0 0 1 16 113 212 0 553943017693596e
-21 29 97 145 0 0 0 1 14 169 255 266 ?107 218 265 5 158 +0 0 168 218 22 81 1 266
 459 267 169 268 0 217 269 270 14 218 251 269 ?169 271 262 5 208 +0 0 169 271 22
 13 22 29 0 0 0 0 0 0 9 15 14 15 173 272 ?17 0 273 5 274 -0 0 17 0 22 81 1 272 4
61 267 15 275 0 269 276 277 14 17 85 276 ?278 15 279 5 6 -0 0 278 15 22 15 273 4
4 0 280 15 101 50 274 65 0 15 219 281 0 +0 0 0 0 0 1 1 0 0 50 219 2 0 271 208 27
4 0 +0 0 .5 0 0 1 1 0 0 50 281 86 0 282 274 283 0 +0 0 .5 1224646799147352e-31 -
1 0 1 1224646799147352e-31 0 14 282 79 284 ?271 285 58 5 281 -0 0 271 285 22 50
 283 87 0 285 281 18 0 +1.9 232682891837997e-30 .5 -1 0 0 0 0 1 14 285 81 286 ?2
82 278 287 5 283 -0 0 282 278 22 50 18 88 0 278 283 6 0 +0 -.7 .5 -1168655815394
902e-31 1 0 -1 -1168655815394902e-31 0 14 278 83 288 ?285 17 65 5 18 -0 0 285 17
 22 81 1 288 465 267 278 289 0 286 290 291 15 65 82 0 52 278 0 17 52 0 65 67 66
 49 48 247 0 257 +17 67 0 65 63 52 42 257 255 0 292 -17 66 0 65 52 63 46 293 258
 0 246 +17 48 0 273 280 294 46 52 247 0 66 -17 257 0 287 54 292 49 67 255 0 294
 +15 287 80 0 54 285 0 17 54 0 287 295 257 53 294 249 0 59 +17 292 0 287 257 295
 42 38 240 0 0 -17 294 0 273 48 60 49 54 249 0 0 -17 60 0 273 294 280 53 56 61 0
 0 -17 280 0 273 60 48 55 246 244 0 0 -17 246 0 279 293 62 46 280 244 0 0 +15 27
9 84 0 246 17 0 17 293 0 279 296 246 57 66 258 0 0 -17 62 0 279 246 296 55 41 24
3 0 280 +17 296 0 279 62 293 26 37 237 0 0 -17 41 0 58 39 56 26 62 243 0 296 -15
 58 78 0 56 282 0 17 39 0 58 59 41 34 33 40 0 0 -17 59 0 58 56 39 53 295 253 0 6
0 +17 295 0 287 292 54 34 59 253 0 39 -17 37 0 36 68 33 57 296 237 0 293 +15 36
 3 0 37 271 0 17 68 0 36 38 37 42 63 69 0 67 +17 38 0 36 33 68 34 292 240 0 295
 +14 271 1 290 ?218 282 36 5 219 +0 0 218 282 22 81 1 290 466 267 271 297 0 288
 0 298 80 255 1 267 299 300 9000 1 1 1 1 1 1 1 1 0 FFFFTFTFFFFFFF1 81 1 297 396
 301 271 0 290 302 303 304 82 255 1 298 186843239 80 1 301 0 305 8001 0 0 0 0 3
 5 0 0 0 FFFFTFTFFFFFFF2 81 1 302 395 301 282 0 284 306 297 307 81 1 303 397 301
 218 0 269 297 268 308 83 255 3 304 .752941176470588 .752941176470588 .752941176
470588 81 1 269 460 267 218 303 0 266 272 309 81 1 268 398 301 169 0 266 303 310
 311 83 3 308 .752941176470588 .752941176470588 .752941176470588 81 1 310 399 30
1 107 0 217 268 312 313 83 3 311 .752941176470588 .752941176470588 .752941176470
588 81 1 217 458 267 107 310 0 207 266 314 81 1 312 400 301 168 0 207 310 315 31
6 83 3 313 .752941176470588 .752941176470588 .752941176470588 81 1 207 457 267 1
68 312 0 167 217 317 81 1 315 401 301 96 0 167 312 318 319 83 3 316 .75294117647
0588 .752941176470588 .752941176470588 81 1 167 456 267 96 315 0 157 207 320 81
 1 318 402 301 147 0 157 315 0 321 83 3 319 .752941176470588 .752941176470588 .7
52941176470588 81 1 157 455 267 147 318 0 0 167 322 83 3 321 .752941176470588 .7
52941176470588 .752941176470588 82 1 322 -1337393047 82 1 320 -1330773911 82 1 3
17 -1336016791 82 1 314 -1335820183 82 1 309 -1294204823 81 1 284 463 267 282 30
2 0 276 286 323 81 1 306 394 301 285 0 286 289 302 324 83 3 307 .752941176470588
 .752941176470588 .752941176470588 81 1 286 464 267 285 306 0 284 288 325 81 1 2
89 393 301 278 0 288 326 306 327 83 3 324 .752941176470588 .752941176470588 .752
941176470588 81 1 326 392 301 17 0 276 275 289 328 83 3 327 .752941176470588 .75
2941176470588 .752941176470588 81 1 276 462 267 17 326 0 272 284 329 81 1 275 39
1 301 15 0 272 0 326 330 83 3 328 .752941176470588 .752941176470588 .75294117647
0588 83 3 330 .752941176470588 .752941176470588 .752941176470588 82 1 329 194183
271 82 1 325 193658983 82 1 323 193396839 79 255 15 305 SDL/TYSA_COLOUR79 14 300
 SWEntUnchanged82 1 291 193921127 82 1 277 -1295253399 82 1 270 -1294729111 16 1
11 199 0 553943017693596e-21 98 244 196 0 0 0 1 17 30 0 190 110 32 76 25 31 0 29
 -17 72 0 106 98 75 50 109 136 0 110 -30 197 309 0 1 193 112 331 +.4787923263406
 -.243527687531534 .0181702141807132 -89503802352231e-31 -1550251331446665e-32 1
 141 331 193 331 331 197 17 79 0 90 92 91 77 29 113 177 99 -30 146 317 0 1 141 1
77 332 +.4770922463406 -.246472312468466 .0181702141807132 89503802352231e-31 15
50251331446665e-32 1 141 332 141 332 332 146 133 119 336 0 117 333 121 0 +121 .4
86602540378444 -.25 0 .4787923263406 -.243527687531534 0 1 0 141 123 119 123 123
 121 136 124 3 7 3 5 4 FFF1 334 335 336 135 125 2 0 45 21 334 .4787923263406 -.2
43527687531534 0 .479524369258308 -.2439503327071315 0 .480988455093724 -.244795
6230583255 0 .483093243130475 -.246194862056489 0 .485015349734478 -.24785670799
7396 0 .486114072704399 -.249227212234078 0 .486602540378444 -.25 0 127 5 335 4
 1 1 1 4 128 5 336 0 .25 .5 .75 1 134 333 345 0 1 105 119 337 +338 339 133 105 3
46 0 94 340 333 0 +333 .4121403410567665 -.208972312468466 0 .4 -.2 0 0 1 141 33
7 105 337 337 333 136 338 3 5 3 3 6 FFF1 341 342 343 135 339 2 0 45 15 341 .4121
403410567665 -.208972312468466 0 .4119224485603345 -.2088465121769965 0 .4075645
986316965 -.206330506347609 0 .3992757973708875 -.2012543557485975 0 .4 -.2 0 12
7 3 342 4 1 4 128 3 343 0 .05 1 134 340 347 0 1 120 105 344 -345 346 133 120 348
 0 104 0 340 0 +340 .486602540378444 -.25 0 .4770922463406 -.246472312468466 0 1
 0 141 344 120 344 344 340 136 345 3 7 3 5 4 FFF1 347 348 349 135 346 2 0 45 21
 347 .4770922463406 -.246472312468466 0 .477824289258308 -.246894957644063 0 .47
9288375093724 -.2477402479952575 0 .481552545630475 -.2488634284055835 0 .483952
799734478 -.2496970985829785 0 .485689052704399 -.249963368468311 0 .48660254037
8444 -.25 0 127 5 348 4 1 1 1 4 128 5 349 0 .25 .5 .75 1 19 16 95 0 1 0 9 5 S0 1
41 20 19 20 20 7 74 4 CI16 index_map_offset0 0 1 dCCZ20 14 3 0 0 290 2 318 0 0 0
 0 0 0 0 0 0 0 0 0 0 0 0 0 0 80 2 12 350 351 8004 0 0 0 0 3 5 0 0 0 FFTFFFFFFFFF
FF2 3 83 1 13 78e2 79 16 351 SDL/TYSA_DENSITY1 0 
